<svg xmlns="http://www.w3.org/2000/svg" viewBox="0 0 320 320" role="img" aria-labelledby="title desc">
  <title id="title">Happy chibi mascot</title>
  <desc id="desc">A cheerful chibi mascot celebrating with raised arms.</desc>
  <defs>
    <linearGradient id="bgGlow" x1="0" y1="0" x2="1" y2="1">
      <stop offset="0%" stop-color="#ffe680"/>
      <stop offset="100%" stop-color="#ff9b54"/>
    </linearGradient>
    <linearGradient id="kimono" x1="0" y1="0" x2="0" y2="1">
      <stop offset="0%" stop-color="#ff8d68"/>
      <stop offset="100%" stop-color="#db4b47"/>
    </linearGradient>
  </defs>
  <circle cx="160" cy="160" r="132" fill="url(#bgGlow)" opacity="0.24"/>
  <ellipse cx="160" cy="280" rx="72" ry="18" fill="#1d1b1a" opacity="0.14"/>
  <circle cx="160" cy="102" r="64" fill="#ffd7bb"/>
  <path d="M102 96c8-42 38-64 64-64 33 0 59 21 64 62-10-11-18-20-28-26-9 12-30 19-50 22-14 2-31 3-50 6z" fill="#40251d"/>
  <path d="M104 92c6-34 34-58 61-58 27 0 52 16 60 46-16-8-35-12-56-12-22 0-43 6-65 24z" fill="#5f382d"/>
  <circle cx="132" cy="110" r="8" fill="#2d211d"/>
  <circle cx="188" cy="110" r="8" fill="#2d211d"/>
  <path d="M126 100c5-6 11-8 18-7" fill="none" stroke="#2d211d" stroke-width="4" stroke-linecap="round"/>
  <path d="M176 93c8-2 15 1 20 8" fill="none" stroke="#2d211d" stroke-width="4" stroke-linecap="round"/>
  <path d="M133 134c15 14 39 14 54 0" fill="none" stroke="#b9544d" stroke-width="6" stroke-linecap="round"/>
  <circle cx="118" cy="127" r="10" fill="#ffad98" opacity="0.6"/>
  <circle cx="202" cy="127" r="10" fill="#ffad98" opacity="0.6"/>
  <path d="M121 189c7-34 35-49 39-49 5 0 33 15 40 49l9 73H111z" fill="url(#kimono)"/>
  <path d="M146 148l14 25 14-25" fill="#fff1e6"/>
  <path d="M139 205h42l-8 59h-26z" fill="#7d1f31"/>
  <path d="M112 186c-18 12-29 28-35 49" fill="none" stroke="#ffd7bb" stroke-width="18" stroke-linecap="round"/>
  <path d="M208 186c18 12 29 28 35 49" fill="none" stroke="#ffd7bb" stroke-width="18" stroke-linecap="round"/>
  <path d="M77 233l-17-18" fill="none" stroke="#ffd7bb" stroke-width="12" stroke-linecap="round"/>
  <path d="M243 233l17-18" fill="none" stroke="#ffd7bb" stroke-width="12" stroke-linecap="round"/>
  <path d="M110 265c8 14 29 23 50 23 22 0 43-9 50-23" fill="none" stroke="#2d211d" stroke-width="6" stroke-linecap="round" opacity="0.18"/>
  <circle cx="72" cy="58" r="10" fill="#ffd54d"/>
  <circle cx="247" cy="68" r="8" fill="#53d988"/>
  <circle cx="42" cy="122" r="8" fill="#6fc9ff"/>
  <circle cx="278" cy="120" r="9" fill="#ff7a59"/>
  <circle cx="89" cy="34" r="5" fill="#fff"/>
  <circle cx="230" cy="39" r="5" fill="#fff"/>
</svg>
